/* XPM */
static char *result[] = {
/* columns rows colors chars-per-pixel */
"32 32 6 1 ",
"  c #181425",
". c #2F1F2C",
"X c #3E2731",
"o c #4E2D33",
"O c #733E39",
"+ c #874D40",
/* pixels */
" XXOOO++O XXOO ..OOOOoo ..OOO+oo",
" ..OOO+o XXO+OO ..OOoo ..OOO+oo ",
". ..O+o XXOOO+OO ..oo ..OOO+oo .",
"OO .oo ..OOOO+oo .XOO  ..OOoo ..",
"OOO   ..OOOO+oo .XO+OO  ..oo ..O",
"O+OO  .XOOO+oo .XOOO+OO  oo ..OO",
"OO+OO ..OOOoo .XOOOOO+OO   ..OOO",
"OOO+OO ..Ooo ..OOOOOOO++  ..OOOO",
"OOOO+OO ...  ..OOOOOO+oo  ..OOOO",
"OOOOO++O      ..OOOO+oo X ...OOO",
"OOOOO+oo XXOOO ..OOOoo XXO ...OO",
"OOOO+oo XXX++OO ..ooo XXO+O ...O",
"OOO+oo XXXOOO+OO ..o XXOO++O ...",
".OOoo XXXOOOOO+OO   XXOOOO++O ..",
"..oo ...OOOOOO+oo   ..OOOOO++O .",
"     ..OOOOOO+oo XX ...OOOOO++O ",
"XOO  ..OOOOO+oo XXOO ...OOOO+oo ",
"O+OO ...OOOOoo XX++OO ...OO+oo X",
"OO+OO ...OOoo XXOO++OO ....oo XO",
"OO++O  ....o XXOOOO++OO      XOO",
"OO+oo        .XOOOOO+++  XXO .OO",
"O+oo XXXXOO  ..OOOOO+oo XXX+O .O",
"Ooo XXOOO+OO ...OOO+oo XXXO++O .",
"oo  XXOOOO+OO ...OOoo XXXOOO++O ",
"    XXOOOOO+OO ..ooo .XXOOOOOoo ",
"XX  XXOOOOOO++O ...  ..XOOOOoo X",
"O+X ..OOOOOO+oo  XOO ...OOOoo XX",
"OO+O ..OOOO+oo  XX+OO ...Ooo XXO",
"OO+o  ...oooo  XXOO+OO ...o XXOO",
"O+o  OO ....  XXOOOO+OO    ..OOO",
"Oo XO+OO      ..OOOOO+++  ..OOO+",
"o XOOO+OO  XO ..OOOOO+oo ..OOO+o"
};
